Coordinates
version=1
nRows=21
nColumns=22
inDegrees=yes

Units are S.I. units (second, meters, Newtons, ...)
If the header above contains a line with 'inDegrees', this indicates whether rotational values are in degrees (yes) or radians (no).

endheader
time	pelvis_tilt	pelvis_list	pelvis_rotation	pelvis_tx	pelvis_ty	pelvis_tz	hip_flexion_r	hip_adduction_r	hip_rotation_r	knee_angle_r	ankle_angle_r	subtalar_angle_r	hip_flexion_l	hip_adduction_l	hip_rotation_l	knee_angle_l	ankle_angle_l	subtalar_angle_l	lumbar_extension	lumbar_bending	lumbar_rotation
      0.01000000	      1.32172405	     -1.59960306	     -2.24765107	      1.06008914	      0.92698229	      0.16011859	     -4.30059993	      2.19573724	      0.13094701	     -5.44842486	      3.84224655	      2.38276028	     -3.03918274	     -2.95097849	    -11.01555938	     -9.21670371	      7.78333278	     -1.21362091	     -4.19679539	     -2.24474350	      4.50395693
      0.02000000	      1.29275424	     -1.73562016	     -2.24796405	      1.06005766	      0.92681721	      0.16034858	     -4.26052947	      2.36314894	      0.16297367	     -5.47438795	      3.83558066	      2.37364110	     -3.07174424	     -3.09407030	    -10.96944794	     -9.10276716	      7.84801547	     -1.20225469	     -4.16007201	     -2.12078256	      4.51288748
      0.03000000	      1.26412786	     -1.87007594	     -2.24638757	      1.06002851	      0.92665819	      0.16056500	     -4.22388975	      2.52807038	      0.19901706	     -5.49365247	      3.81285719	      2.35166229	     -3.09531782	     -3.23817183	    -10.94230793	     -9.00762667	      7.93148003	     -1.16976542	     -4.12022763	     -1.99732250	      4.50930043
      0.04000000	      1.24215971	     -1.98108908	     -2.24635151	      1.06000481	      0.92652637	      0.16073824	     -4.19219499	      2.66355785	      0.22929517	     -5.51526991	      3.79313788	      2.32618989	     -3.11443193	     -3.35785610	    -10.92847866	     -8.93455370	      8.00401881	     -1.12978837	     -4.08449026	     -1.89657063	      4.50047600
      0.05000000	      1.22702345	     -2.06487721	     -2.24601391	      1.05996977	      0.92642808	      0.16085721	     -4.16614593	      2.76534675	      0.25343654	     -5.53606870	      3.77547107	      2.29899927	     -3.12470147	     -3.44872611	    -10.92549474	     -8.88833071	      8.06612755	     -1.08398689	     -4.06035807	     -1.82201957	      4.49008269
      0.06000000	      1.22082921	     -2.11851729	     -2.24731338	      1.05993999	      0.92636696	      0.16092692	     -4.14706122	      2.82953678	      0.26877209	     -5.56048549	      3.76801512	      2.27714238	     -3.13424487	     -3.50651307	    -10.92997222	     -8.85946506	      8.10694240	     -1.04527932	     -4.04393250	     -1.77731804	      4.47840410
      0.07000000	      1.22303204	     -2.13679042	     -2.24704925	      1.05991227	      0.92634042	      0.16095308	     -4.13534173	      2.85134207	      0.27915662	     -5.58552688	      3.76647852	      2.27129953	     -3.14619276	     -3.52469938	    -10.94022591	     -8.83877326	      8.12044998	     -1.03512051	     -4.03744089	     -1.76951952	      4.45526714
      0.08000000	      1.22825010	     -2.14213502	     -2.24585513	      1.05990040	      0.92633385	      0.16095792	     -4.13614977	      2.85796518	      0.28093354	     -5.59313929	      3.76650934	      2.27057729	     -3.15118169	     -3.52960741	    -10.94027275	     -8.83975537	      8.12200280	     -1.03378347	     -4.02896132	     -1.77571836	      4.45430966
      0.09000000	      1.23743124	     -2.15936871	     -2.25318903	      1.05984714	      0.92633929	      0.16095995	     -4.11852239	      2.87547914	      0.28958064	     -5.64050913	      3.77029741	      2.26513750	     -3.16540987	     -3.54630821	    -10.94817723	     -8.82804889	      8.13630277	     -1.02375145	     -4.03736138	     -1.76335514	      4.44467736
      0.10000000	      1.24245486	     -2.16252249	     -2.25303044	      1.05983280	      0.92634696	      0.16094765	     -4.11891174	      2.87735731	      0.29039435	     -5.64678680	      3.77098192	      2.26462993	     -3.16932018	     -3.54942886	    -10.94902820	     -8.83068251	      8.13716915	     -1.02268195	     -4.03102772	     -1.76918332	      4.44514400
      0.11000000	      1.25471075	     -2.16523330	     -2.26381516	      1.05976289	      0.92636646	      0.16095118	     -4.10112546	      2.87871965	      0.29794531	     -5.69820342	      3.77751346	      2.26087700	     -3.17825110	     -3.55114304	    -10.96413590	     -8.83293192	      8.14475931	     -1.01484101	     -4.04624092	     -1.77645962	      4.44405428
      0.12000000	      1.25942588	     -2.16780221	     -2.26714212	      1.05974628	      0.92637812	      0.16094714	     -4.10067554	      2.88024031	      0.29842526	     -5.70481755	      3.77921289	      2.26053173	     -3.18213736	     -3.55352689	    -10.96591137	     -8.83585230	      8.14483366	     -1.01403020	     -4.04006144	     -1.78413350	      4.44422801
      0.13000000	      1.26961951	     -2.16570489	     -2.28628723	      1.05966614	      0.92639578	      0.16096143	     -4.07479813	      2.87559615	      0.31135567	     -5.76511290	      3.79065970	      2.25781389	     -3.18946461	     -3.54939275	    -10.99110013	     -8.83783393	      8.14609323	     -1.00808594	     -4.05379940	     -1.79707220	      4.44576368
      0.14000000	      1.26895973	     -2.16154206	     -2.31855383	      1.05961218	      0.92639794	      0.16100294	     -4.04371302	      2.86902174	      0.32351922	     -5.81363876	      3.82294593	      2.25449221	     -3.18884515	     -3.54390907	    -11.03463419	     -8.84079858	      8.14058215	     -1.00037193	     -4.04733192	     -1.81499183	      4.47350683
      0.15000000	      1.27188552	     -2.16490235	     -2.32551506	      1.05957463	      0.92640901	      0.16101794	     -4.04142305	      2.87273534	      0.32472544	     -5.81533013	      3.82335605	      2.25441020	     -3.19011441	     -3.54692856	    -11.03461349	     -8.84283343	      8.14018575	     -1.00025778	     -4.04343356	     -1.82485704	      4.47083927
      0.16000000	      1.27244863	     -2.16536774	     -2.34839135	      1.05950371	      0.92641760	      0.16105215	     -4.01599317	      2.87204865	      0.35262138	     -5.85573779	      3.82277589	      2.25246552	     -3.18751504	     -3.54692820	    -11.05367389	     -8.84657534	      8.13741923	     -0.99877358	     -4.04220020	     -1.83584845	      4.46025188
      0.17000000	      1.27436479	     -2.16900731	     -2.36064747	      1.05945652	      0.92642704	      0.16108828	     -4.01230337	      2.87705055	      0.35299348	     -5.85682466	      3.82372053	      2.25237681	     -3.18750734	     -3.55106564	    -11.05490696	     -8.84881935	      8.13674838	     -0.99880162	     -4.03892619	     -1.84780193	      4.45897416
      0.18000000	      1.24132792	     -2.16530636	     -2.43189215	      1.05937031	      0.92638873	      0.16120302	     -3.93493981	      2.87192058	      0.42383976	     -5.92187136	      3.84832053	      2.24413569	     -3.14776437	     -3.54914329	    -11.15495234	     -8.86674960	      8.12740201	     -0.99717228	     -3.99511088	     -1.86688008	      4.52385134
      0.19000000	      1.24339211	     -2.16878683	     -2.44640830	      1.05931290	      0.92639865	      0.16124095	     -3.93145298	      2.87630455	      0.42441107	     -5.92200069	      3.84804391	      2.24396833	     -3.14744301	     -3.55294770	    -11.15348453	     -8.86906348	      8.12762616	     -0.99727591	     -3.99410192	     -1.87715662	      4.51747817
      0.20000000	      1.22274789	     -2.17018594	     -2.49590201	      1.05921644	      0.92637663	      0.16133092	     -3.87841635	      2.87802033	      0.48621006	     -5.96650353	      3.84981477	      2.23561199	     -3.11593280	     -3.55716472	    -11.21259394	     -8.89092557	      8.13199906	     -0.99946837	     -3.96819879	     -1.88901943	      4.54076970
      0.21000000	      1.22483159	     -2.17365568	     -2.51168573	      1.05914328	      0.92638396	      0.16136524	     -3.87441175	      2.88207324	      0.48566012	     -5.96566650	      3.84963440	      2.23556080	     -3.11487931	     -3.56024786	    -11.21120140	     -8.89249273	      8.13201889	     -0.99963816	     -3.97023912	     -1.89771922	      4.53476683
